<svg width="45" height="45" viewBox="0 0 45 45" fill="none" xmlns="http://www.w3.org/2000/svg">
<path d="M4.21875 7.03125H9.84375L14.0625 30.9375H36.5625M14.0625 23.4375H35.9859C36.1486 23.4376 36.3062 23.3814 36.432 23.2783C36.5578 23.1753 36.644 23.0318 36.6759 22.8724L39.2071 10.2161C39.2276 10.1141 39.2251 10.0087 39.1999 9.90777C39.1746 9.80679 39.1273 9.71267 39.0613 9.6322C38.9953 9.55173 38.9123 9.48692 38.8182 9.44244C38.7241 9.39796 38.6213 9.37493 38.5172 9.375H11.25M16.875 36.5625C16.875 37.3392 16.2454 37.9688 15.4688 37.9688C14.6921 37.9688 14.0625 37.3392 14.0625 36.5625C14.0625 35.7858 14.6921 35.1562 15.4688 35.1562C16.2454 35.1562 16.875 35.7858 16.875 36.5625ZM36.5625 36.5625C36.5625 37.3392 35.9329 37.9688 35.1562 37.9688C34.3796 37.9688 33.75 37.3392 33.75 36.5625C33.75 35.7858 34.3796 35.1562 35.1562 35.1562C35.9329 35.1562 36.5625 35.7858 36.5625 36.5625Z" stroke="black" stroke-width="1.5" stroke-linecap="round" stroke-linejoin="round"/>
</svg>
