<svg width="56" height="56" viewBox="0 0 56 56" fill="none" xmlns="http://www.w3.org/2000/svg">
<rect width="56" height="56" fill="#DDD5CE"/>
<path d="M37.4696 27.185L36.4396 25.755C36.209 25.4312 35.9046 25.1671 35.5516 24.9844C35.1985 24.8018 34.807 24.706 34.4096 24.705H30.0296V22.565C30.0296 21.902 29.7662 21.2661 29.2973 20.7972C28.8285 20.3284 28.1926 20.065 27.5296 20.065H20.5596C19.8971 20.0668 19.2623 20.3308 18.7938 20.7993C18.3254 21.2677 18.0614 21.9025 18.0596 22.565V32.505C18.0596 32.9028 18.2176 33.2844 18.4989 33.5657C18.7802 33.847 19.1617 34.005 19.5596 34.005H20.7796C20.8551 34.54 21.1213 35.0298 21.5292 35.3842C21.9371 35.7385 22.4592 35.9337 22.9996 35.9337C23.5399 35.9337 24.0621 35.7385 24.47 35.3842C24.8779 35.0298 25.1441 34.54 25.2196 34.005H30.7796C30.8551 34.54 31.1213 35.0298 31.5292 35.3842C31.9371 35.7385 32.4592 35.9337 32.9996 35.9337C33.5399 35.9337 34.0621 35.7385 34.47 35.3842C34.8779 35.0298 35.1441 34.54 35.2196 34.005H36.4396C36.8374 34.005 37.2189 33.847 37.5002 33.5657C37.7815 33.2844 37.9396 32.9028 37.9396 32.505V28.635C37.9371 28.1146 37.7729 27.6079 37.4696 27.185ZM22.9996 34.935C22.7523 34.935 22.5107 34.8617 22.3051 34.7243C22.0995 34.587 21.9393 34.3918 21.8447 34.1634C21.7501 33.9349 21.7254 33.6836 21.7736 33.4411C21.8218 33.1987 21.9409 32.9759 22.1157 32.8011C22.2905 32.6263 22.5132 32.5073 22.7557 32.459C22.9982 32.4108 23.2495 32.4355 23.4779 32.5302C23.7063 32.6248 23.9016 32.785 24.0389 32.9905C24.1763 33.1961 24.2496 33.4378 24.2496 33.685C24.2496 34.0165 24.1179 34.3345 23.8835 34.5689C23.649 34.8033 23.3311 34.935 22.9996 34.935ZM29.0296 33.005H25.1496C25.004 32.5491 24.7172 32.1513 24.3308 31.8691C23.9443 31.5868 23.4781 31.4347 22.9996 31.4347C22.521 31.4347 22.0548 31.5868 21.6684 31.8691C21.2819 32.1513 20.9952 32.5491 20.8496 33.005H19.5596C19.427 33.005 19.2998 32.9523 19.206 32.8586C19.1122 32.7648 19.0596 32.6376 19.0596 32.505V22.565C19.0596 22.1672 19.2176 21.7856 19.4989 21.5043C19.7802 21.223 20.1617 21.065 20.5596 21.065H27.5296C27.9274 21.065 28.3089 21.223 28.5902 21.5043C28.8715 21.7856 29.0296 22.1672 29.0296 22.565V33.005ZM32.9996 34.935C32.7523 34.935 32.5107 34.8617 32.3051 34.7243C32.0995 34.587 31.9393 34.3918 31.8447 34.1634C31.7501 33.9349 31.7254 33.6836 31.7736 33.4411C31.8218 33.1987 31.9409 32.9759 32.1157 32.8011C32.2905 32.6263 32.5132 32.5073 32.7557 32.459C32.9982 32.4108 33.2495 32.4355 33.4779 32.5302C33.7063 32.6248 33.9016 32.785 34.0389 32.9905C34.1763 33.1961 34.2496 33.4378 34.2496 33.685C34.2496 34.0165 34.1179 34.3345 33.8835 34.5689C33.649 34.8033 33.3311 34.935 32.9996 34.935ZM36.9396 32.505C36.9396 32.6376 36.8869 32.7648 36.7931 32.8586C36.6994 32.9523 36.5722 33.005 36.4396 33.005H35.1496C35.004 32.5491 34.7172 32.1513 34.3308 31.8691C33.9443 31.5868 33.4781 31.4347 32.9996 31.4347C32.521 31.4347 32.0548 31.5868 31.6684 31.8691C31.2819 32.1513 30.9952 32.5491 30.8496 33.005H30.0296V25.705H34.4096C34.6482 25.7066 34.883 25.7645 35.095 25.874C35.307 25.9834 35.4901 26.1414 35.6296 26.335L36.6596 27.765C36.8395 28.0196 36.9372 28.3232 36.9396 28.635V32.505Z" fill="white"/>
<path d="M34.0283 28.205H32.0283C31.8957 28.205 31.7685 28.1523 31.6748 28.0586C31.581 27.9648 31.5283 27.8376 31.5283 27.705C31.5283 27.5724 31.581 27.4452 31.6748 27.3515C31.7685 27.2577 31.8957 27.205 32.0283 27.205H34.0283C34.1609 27.205 34.2881 27.2577 34.3819 27.3515C34.4756 27.4452 34.5283 27.5724 34.5283 27.705C34.5283 27.8376 34.4756 27.9648 34.3819 28.0586C34.2881 28.1523 34.1609 28.205 34.0283 28.205Z" fill="white"/>
</svg>
